<svg width="42" height="40" viewBox="0 0 42 40" fill="none" xmlns="http://www.w3.org/2000/svg">
<mask id="mask0_4_553" style="mask-type:alpha" maskUnits="userSpaceOnUse" x="0" y="2" width="42" height="37">
<path fill-rule="evenodd" clip-rule="evenodd" d="M-3.05176e-05 2H42V39H-3.05176e-05V2Z" fill="white"/>
</mask>
<g mask="url(#mask0_4_553)">
<path fill-rule="evenodd" clip-rule="evenodd" d="M42 22.9699C42 11.3886 32.5979 2 20.9999 2C9.40185 2 -3.05176e-05 11.3886 -3.05176e-05 22.9699C-3.05176e-05 29.4001 2.89925 35.1533 7.46266 39H34.5371C39.1005 35.1533 42 29.4001 42 22.9699Z" fill="#2E2E2E"/>
<path fill-rule="evenodd" clip-rule="evenodd" d="M22.2736 48.2374C21.9353 48.2374 21.661 47.9635 21.6604 47.6253L21.6559 45.0712C21.648 40.8209 21.6489 36.5704 21.6321 32.3201C21.6231 30.0663 22.1333 29.7049 18.9826 29.7123C18.6484 29.713 18.3142 29.7099 17.9799 29.7085C17.4509 29.7061 16.9219 29.7038 16.393 29.7038C16.2781 29.7038 16.1634 29.7038 16.0485 29.704C15.6546 29.7049 15.3341 29.3885 15.3338 28.9943C15.3329 27.7356 15.3327 25.6822 15.3325 24.5898C15.3325 24.1862 15.6629 23.861 16.0665 23.8671C16.1771 23.8686 16.2833 23.8698 16.3715 23.8698C16.6685 23.8698 16.9656 23.8664 17.2626 23.8628C17.551 23.8594 17.8394 23.8558 18.1276 23.8558C18.5727 23.8558 18.9352 23.8644 19.2683 23.8826C19.3577 23.8875 19.4427 23.894 19.5233 23.89C21.9524 23.7665 21.6323 24.4087 21.6552 21.5895L21.6538 21.4661C21.6303 19.5256 21.6058 17.5192 21.8094 15.6012C22.2017 11.9056 25.246 9.13984 29.0481 9.02491C29.6133 9.00808 30.2272 9 30.98 9C31.4325 9 31.8845 9.00269 32.337 9.00539C32.7938 9.0083 33.2504 9.011 33.7073 9.011C33.8919 9.011 34.0676 9.01055 34.2364 9.00965C34.5789 9.00786 34.8539 9.28618 34.848 9.6287C34.8265 10.8592 34.8267 12.1238 34.8487 13.4593C34.8543 13.8049 34.5722 14.0862 34.2265 14.081C33.9186 14.0763 33.5935 14.0738 33.2468 14.0738C32.6129 14.0738 31.9716 14.0817 31.3517 14.0891L30.5528 14.0985C28.915 14.118 27.5923 15.4257 27.5353 17.0625C27.5083 17.831 27.5135 18.6191 27.5187 19.373C27.5236 20.1404 27.4998 20.9334 27.4996 21.7013C27.4987 24.0992 27.5757 23.8424 29.5287 23.8834C29.5686 23.8841 29.6099 23.8828 29.6521 23.8814C30.1118 23.8677 30.6126 23.8615 31.2278 23.8615C31.5894 23.8615 31.951 23.8635 32.3126 23.8657C32.6784 23.8677 33.0443 23.87 33.4102 23.87C33.5866 23.87 33.7531 23.8695 33.9118 23.8684C34.2826 23.8659 34.5686 24.1925 34.5197 24.56C34.4835 24.83 34.4481 25.0998 34.4124 25.3696C34.2384 26.686 34.0591 28.0417 33.8447 29.3723C33.8178 29.5393 33.6773 29.6639 33.508 29.6701C33.0364 29.6879 32.0881 29.7139 31.3984 29.7139C30.956 29.7139 30.5062 29.7114 30.0456 29.709C29.5583 29.7065 29.0591 29.704 28.5428 29.704H28.0726C27.7339 29.704 27.4594 29.9785 27.4594 30.3173V47.6242C27.4594 47.9629 27.1849 48.2374 26.8462 48.2374H22.2736Z" fill="#FEFEFE"/>
</g>
</svg>
