<svg width="42" height="37" viewBox="0 0 42 37" fill="none" xmlns="http://www.w3.org/2000/svg">
<path d="M20.9999 0C32.5979 0 42 9.38861 42 20.9699C42 27.4001 39.1005 33.1533 34.5371 37H27.4594V28.3173C27.4594 27.9785 27.7339 27.704 28.0726 27.704H28.5428C29.0591 27.704 29.5583 27.7065 30.0456 27.709L30.0777 27.7092C30.5271 27.7116 30.9662 27.7139 31.3984 27.7139C32.0881 27.7139 33.0364 27.6879 33.508 27.6701C33.6773 27.6639 33.8178 27.5393 33.8447 27.3723C34.0591 26.0417 34.2384 24.686 34.4124 23.3696C34.4215 23.3007 34.4306 23.2318 34.4397 23.1629C34.4662 22.962 34.4927 22.761 34.5197 22.56C34.5686 22.1925 34.2826 21.8659 33.9118 21.8684C33.7531 21.8695 33.5866 21.87 33.4102 21.87C33.0772 21.87 32.7441 21.8681 32.4111 21.8663L32.3126 21.8657C31.951 21.8635 31.5894 21.8615 31.2278 21.8615C30.6126 21.8615 30.1118 21.8677 29.6521 21.8814L29.6503 21.8815C29.6087 21.8828 29.568 21.8841 29.5287 21.8834C29.3394 21.8795 29.1677 21.8783 29.0121 21.8772C27.5615 21.8672 27.4988 21.8668 27.4996 19.7013C27.4997 19.3557 27.5045 19.0051 27.5094 18.6539C27.5154 18.2248 27.5214 17.7951 27.5187 17.373C27.5135 16.6191 27.5083 15.831 27.5353 15.0625C27.5923 13.4257 28.915 12.118 30.5528 12.0985L31.3971 12.0885C32.0029 12.0813 32.6284 12.0738 33.2468 12.0738C33.5936 12.0738 33.9186 12.0763 34.2265 12.081C34.5722 12.0862 34.8543 11.8049 34.8487 11.4593C34.8267 10.1238 34.8265 8.85917 34.848 7.6287C34.8539 7.28618 34.5789 7.00786 34.2364 7.00965C34.0676 7.01055 33.8919 7.011 33.7074 7.011C33.2504 7.011 32.7938 7.00831 32.337 7.00539L32.3355 7.00538C31.8835 7.00269 31.432 7 30.98 7C30.2272 7 29.6133 7.00808 29.0481 7.02491C25.246 7.13984 22.2017 9.90558 21.8094 13.6012C21.6059 15.5184 21.6303 17.5239 21.6538 19.4636L21.6552 19.5895C21.6437 21.0031 21.7185 21.5464 21.4896 21.7524C21.2621 21.9572 20.7344 21.8284 19.5233 21.89C19.4548 21.8934 19.3831 21.8892 19.3083 21.8848C19.295 21.8841 19.2817 21.8833 19.2683 21.8825C18.9352 21.8644 18.5727 21.8558 18.1276 21.8558C17.8564 21.8558 17.5851 21.859 17.3136 21.8622L17.2626 21.8628C16.9656 21.8664 16.6685 21.8698 16.3715 21.8698C16.2833 21.8698 16.1771 21.8686 16.0665 21.8671C15.6629 21.861 15.3325 22.1862 15.3325 22.5898C15.3325 22.7788 15.3326 22.9966 15.3326 23.234C15.3328 24.3689 15.3331 25.9533 15.3338 26.9943C15.3341 27.3885 15.6546 27.7049 16.0485 27.704C16.1634 27.7038 16.2781 27.7038 16.393 27.7038C16.9219 27.7038 17.4509 27.7061 17.9799 27.7085C18.0869 27.709 18.1939 27.7096 18.3009 27.7102C18.5281 27.7115 18.7554 27.7128 18.9826 27.7123C21.7025 27.706 21.6942 27.9744 21.6468 29.4979C21.6393 29.7392 21.6308 30.0119 21.6321 30.3201C21.6409 32.5467 21.6448 34.7733 21.6477 37H7.46266C2.89925 33.1533 -3.05176e-05 27.4001 -3.05176e-05 20.9699C-3.05176e-05 9.38861 9.40185 0 20.9999 0Z" fill="#2E2E2E"/>
</svg>
