<svg width="43" height="40" viewBox="0 0 43 40" fill="none" xmlns="http://www.w3.org/2000/svg">
<path fill-rule="evenodd" clip-rule="evenodd" d="M42 22.9699C42 11.3886 32.5979 2 20.9999 2C9.40188 2 0 11.3886 0 22.9699C0 29.4001 2.89928 35.1533 7.46269 39H34.5371C39.1005 35.1533 42 29.4001 42 22.9699Z" fill="#2E2E2E"/>
<mask id="mask0_4_554" style="mask-type:alpha" maskUnits="userSpaceOnUse" x="0" y="2" width="42" height="37">
<path fill-rule="evenodd" clip-rule="evenodd" d="M42 22.9699C42 11.3886 32.5979 2 20.9999 2C9.40188 2 0 11.3886 0 22.9699C0 29.4001 2.89928 35.1533 7.46269 39H34.5371C39.1005 35.1533 42 29.4001 42 22.9699Z" fill="#3D3D3D"/>
</mask>
<g mask="url(#mask0_4_554)">
<path fill-rule="evenodd" clip-rule="evenodd" d="M28.9698 8H12.9358C7.46906 8 3.00012 12.4687 3.00012 17.9356V33.9697C3.00012 39.4364 7.46905 43.9053 12.9358 43.9053H28.9698C34.4367 43.9053 38.9054 39.4364 38.9054 33.9697V17.9356C38.9054 12.4687 34.4367 8 28.9698 8ZM8.73318 38.1719C7.60024 37.0392 6.98154 35.5489 6.98154 33.9692V17.9352C6.98154 16.3553 7.60023 14.8653 8.73318 13.7325C9.86603 12.5997 11.3562 11.9808 12.9358 11.9808H28.9698C30.5496 11.9808 32.0397 12.5996 33.1725 13.7325C34.3054 14.8653 34.9242 16.3554 34.9242 17.9352V33.9692C34.9242 35.5489 34.3054 37.0392 33.1725 38.172C32.0398 39.3048 30.5497 39.9235 28.9698 39.9235H12.9358C11.3561 39.9235 9.86597 39.3047 8.73318 38.1719Z" fill="white"/>
<path fill-rule="evenodd" clip-rule="evenodd" d="M32.3275 16.7935C32.3275 18.108 31.2619 19.1738 29.9471 19.1738C28.6326 19.1738 27.567 18.108 27.567 16.7935C27.567 15.4789 28.6326 14.4131 29.9471 14.4131C31.2619 14.4131 32.3275 15.4789 32.3275 16.7935Z" fill="#FEFEFE"/>
<path fill-rule="evenodd" clip-rule="evenodd" d="M20.573 17.5664C15.8454 17.5664 12.0001 21.4117 12.0001 26.1393C12.0001 30.8666 15.8455 34.7119 20.573 34.7119C25.3005 34.7119 29.1458 30.8666 29.1458 26.1393C29.1458 21.4117 25.3005 17.5664 20.573 17.5664ZM15.1961 26.1393C15.1961 23.1696 17.6035 20.7624 20.573 20.7624C23.5424 20.7624 25.9498 23.1696 25.9498 26.1393C25.9498 29.1087 23.5425 31.5159 20.573 31.5159C17.6035 31.5159 15.1961 29.1087 15.1961 26.1393Z" fill="white"/>
</g>
</svg>
