<svg width="42" height="37" viewBox="0 0 42 37" fill="none" xmlns="http://www.w3.org/2000/svg">
<path d="M20.9999 0C32.5979 0 42 9.38861 42 20.9699C42 24.9878 40.868 28.7413 38.9053 31.9306V15.9356C38.9053 10.4687 34.4366 6 28.9697 6H12.9356C7.46894 6 3 10.4687 3 15.9356V31.7754C1.09565 28.6199 0 24.9228 0 20.9699C0 9.38861 9.40188 0 20.9999 0Z" fill="#2E2E2E"/>
<path d="M20.5728 18.7624C17.6034 18.7624 15.196 21.1696 15.196 24.1393C15.196 27.1087 17.6034 29.5159 20.5728 29.5159C23.5423 29.5159 25.9497 27.1087 25.9497 24.1393C25.9497 21.1696 23.5423 18.7624 20.5728 18.7624Z" fill="#2E2E2E"/>
<path fill-rule="evenodd" clip-rule="evenodd" d="M32.1432 37H9.76234C9.39517 36.7658 9.05012 36.489 8.73306 36.1719C7.60012 35.0392 6.98142 33.5489 6.98142 31.9692V15.9352C6.98142 14.3553 7.60011 12.8653 8.73306 11.7325C9.8659 10.5997 11.3561 9.98078 12.9356 9.98078H28.9697C30.5495 9.98078 32.0396 10.5996 33.1724 11.7325C34.3052 12.8653 34.9241 14.3554 34.9241 15.9352V31.9692C34.9241 33.5489 34.3052 35.0392 33.1724 36.172C32.8554 36.489 32.5104 36.7658 32.1432 37ZM32.3275 14.7935C32.3275 16.108 31.2619 17.1738 29.9471 17.1738C28.6326 17.1738 27.567 16.108 27.567 14.7935C27.567 13.4789 28.6326 12.4131 29.9471 12.4131C31.2619 12.4131 32.3275 13.4789 32.3275 14.7935ZM12 24.1393C12 19.4117 15.8453 15.5664 20.5728 15.5664C25.3004 15.5664 29.1457 19.4117 29.1457 24.1393C29.1457 28.8666 25.3004 32.7119 20.5728 32.7119C15.8453 32.7119 12 28.8666 12 24.1393Z" fill="#2E2E2E"/>
</svg>
