<svg width="43" height="40" viewBox="0 0 43 40" fill="none" xmlns="http://www.w3.org/2000/svg">
<path fill-rule="evenodd" clip-rule="evenodd" d="M42.964 23.0871C42.964 11.5058 33.5619 2.11719 21.9639 2.11719C10.3659 2.11719 0.963989 11.5058 0.963989 23.0871C0.963989 29.5173 3.86327 35.2705 8.42668 39.1172H35.5011C40.0645 35.2705 42.964 29.5173 42.964 23.0871Z" fill="#3D3D3D"/>
<mask id="mask0_41_1381" style="mask-type:alpha" maskUnits="userSpaceOnUse" x="0" y="2" width="43" height="38">
<path fill-rule="evenodd" clip-rule="evenodd" d="M42.964 23.0871C42.964 11.5058 33.5619 2.11719 21.9639 2.11719C10.3659 2.11719 0.963989 11.5058 0.963989 23.0871C0.963989 29.5173 3.86327 35.2705 8.42668 39.1172H35.5011C40.0645 35.2705 42.964 29.5173 42.964 23.0871Z" fill="#3D3D3D"/>
</mask>
<g mask="url(#mask0_41_1381)">
<path d="M19.5197 40.7365V44.8599L22.7579 42.3072L31.0058 35.8052C34.2395 33.2876 38.0006 29.8402 38.0006 24.552C38.0006 16.8368 30.6912 11.1172 22.4439 11.1172C14.1967 11.1172 6.8873 16.8368 6.8873 24.552C6.8873 27.9875 8.35043 31.1948 10.9309 33.578L10.931 33.578C13.2175 35.6896 16.2405 37.0419 19.5197 37.5231V40.7365ZM20.7965 37.6652C20.7951 37.6651 20.7936 37.665 20.7921 37.6649L20.7965 37.6652Z" stroke="white" stroke-width="4"/>
<path d="M26.1382 22.4055C26.1359 21.9563 25.9052 21.7061 25.5358 21.7104C25.1699 21.7155 24.9496 21.9718 24.9473 22.4199C24.9409 23.2489 24.9455 24.0773 24.9438 24.9056C24.9438 25.0252 24.9329 25.1435 24.9231 25.3693C24.7839 25.2035 24.7051 25.1182 24.6348 25.0259C23.8812 24.0285 23.1299 23.0292 22.3768 22.0304C22.1927 21.7862 21.9597 21.6389 21.6542 21.7366C21.3499 21.8336 21.2164 22.0869 21.2158 22.3928C21.2101 23.9937 21.2101 25.5935 21.2158 27.1937C21.2164 27.4562 21.3205 27.6814 21.5714 27.8022C22.0144 28.0147 22.4338 27.6943 22.4389 27.1209C22.4493 26.3386 22.4424 25.5551 22.4424 24.7715C22.4424 24.6204 22.4424 24.4691 22.4424 24.3176C22.5903 24.3862 22.6622 24.4663 22.7278 24.5519C23.4791 25.5377 24.2287 26.5241 24.9784 27.5124C25.1642 27.7604 25.3771 27.9418 25.7107 27.8261C26.0375 27.7131 26.1411 27.4632 26.1411 27.1391C26.1394 25.5607 26.144 23.9833 26.1382 22.4055Z" fill="white"/>
<path d="M28.6236 22.9624C28.7342 22.9535 28.8605 22.9354 28.9891 22.9351C29.4228 22.9312 29.8586 22.9401 30.2915 22.9292C30.4499 22.9245 30.6234 22.9128 30.7633 22.8443C31.0373 22.7111 31.1187 22.4445 31.0452 22.1564C30.9733 21.8625 30.7633 21.7097 30.4662 21.7087C29.6951 21.7068 28.924 21.705 28.1529 21.7068C27.6002 21.7083 27.379 21.9312 27.3779 22.5049C27.3722 24.0231 27.3722 25.5414 27.3779 27.0589C27.379 27.6236 27.6154 27.8637 28.1551 27.866C28.874 27.8695 29.59 27.8684 30.3067 27.8653C30.4246 27.8641 30.5448 27.8473 30.6582 27.8126C30.9149 27.7342 31.0542 27.5515 31.0626 27.2668C31.0721 26.9682 30.9419 26.7623 30.6728 26.6766C30.5285 26.6307 30.3729 26.6192 30.2241 26.618C29.686 26.6108 29.1463 26.6148 28.5988 26.6148C28.5988 26.1908 28.5988 25.8232 28.5988 25.4372C28.7015 25.4272 28.7847 25.4129 28.8684 25.4121C29.3789 25.4092 29.8911 25.424 30.401 25.4051C30.8452 25.3878 31.0783 25.134 31.0615 24.7414C31.0469 24.3886 30.7986 24.1708 30.392 24.1628C30.109 24.1575 29.827 24.1618 29.5423 24.1616C28.4876 24.1616 28.4876 24.1616 28.5865 23.0592C28.5882 23.0373 28.6022 23.017 28.6236 22.9624Z" fill="white"/>
<path d="M16.9221 26.6164C16.8032 26.602 16.6832 26.6099 16.5638 26.6099C16.0641 26.609 15.5667 26.6099 15.0202 26.6099C15.0202 26.4182 15.0202 26.283 15.0202 26.1489C15.0202 24.9376 15.0225 23.7255 15.0186 22.514C15.0169 21.9972 14.7966 21.7092 14.4197 21.7061C14.0293 21.7023 13.8181 21.9777 13.8181 22.5018C13.817 24.0418 13.8158 25.581 13.8192 27.1215C13.8215 27.611 14.0502 27.8505 14.5223 27.8604C14.9459 27.8681 16.5368 27.8751 16.9069 27.8552C17.2679 27.8341 17.5192 27.5566 17.5141 27.2278C17.5085 26.9123 17.2679 26.659 16.9221 26.6164Z" fill="white"/>
<path d="M19.9776 22.3214C19.9741 21.8545 19.8242 21.7067 19.3703 21.7061C18.9082 21.7049 18.7519 21.846 18.7507 22.3099C18.7454 23.9534 18.7454 25.5964 18.7507 27.2405C18.7519 27.7018 18.9207 27.8674 19.358 27.8681C19.8076 27.8705 19.9753 27.6983 19.9776 27.2171C19.98 26.4125 19.9788 25.6085 19.9788 24.8034C19.9788 23.976 19.98 23.1493 19.9776 22.3214Z" fill="white"/>
</g>
</svg>
