<svg width="43" height="38" viewBox="0 0 43 38" fill="none" xmlns="http://www.w3.org/2000/svg">
<path d="M21.9639 0.117188C33.5619 0.117188 42.964 9.50579 42.964 21.0871C42.964 27.5173 40.0645 33.2705 35.5011 37.1172H30.035L32.2392 35.3796C35.4718 32.8624 40.0006 28.8818 40.0006 22.552C40.0006 13.4267 31.4632 7.11719 22.4439 7.11719C13.4247 7.11719 4.8873 13.4267 4.8873 22.552C4.8873 26.5752 6.60585 30.306 9.57401 33.0472C11.7166 35.0259 14.39 36.3939 17.2829 37.1172H8.42668C3.86327 33.2705 0.963989 27.5173 0.963989 21.0871C0.963989 9.50579 10.3659 0.117188 21.9639 0.117188Z" fill="#3D3D3D"/>
<path fill-rule="evenodd" clip-rule="evenodd" d="M23.5739 37.1172H21.5197V34.3046C21.5197 34.1097 21.4343 33.9342 21.2988 33.8172C21.203 33.7346 21.0823 33.6812 20.949 33.671C17.5716 33.4128 14.4957 32.1476 12.2879 30.1087C10.095 28.0835 8.8873 25.3999 8.8873 22.552C8.8873 16.2469 14.9687 11.1172 22.4439 11.1172C29.9191 11.1172 36.0006 16.2469 36.0006 22.552C36.0006 26.7977 33.0086 29.7118 29.7724 32.2308L23.5739 37.1172ZM26.1382 20.4057C26.1359 19.9565 25.9052 19.7063 25.5358 19.7107C25.1699 19.7157 24.9496 19.972 24.9473 20.4201C24.9433 20.9464 24.9436 21.4723 24.944 21.9982C24.9442 22.3007 24.9444 22.6033 24.9438 22.9058C24.9438 22.9782 24.9398 23.0502 24.9345 23.1458C24.931 23.2081 24.9269 23.2804 24.9231 23.3695C24.8709 23.3074 24.8272 23.2566 24.7893 23.2125C24.726 23.1388 24.6787 23.0838 24.6348 23.0261C24.1536 22.3892 23.6732 21.7515 23.1928 21.1137L23.191 21.1112C22.9198 20.7512 22.6482 20.3906 22.3768 20.0306C22.1927 19.7864 21.9597 19.6391 21.6542 19.7368C21.3499 19.8338 21.2164 20.0871 21.2158 20.3931C21.2101 21.9939 21.2101 23.5937 21.2158 25.1939C21.2164 25.4564 21.3205 25.6816 21.5714 25.8024C22.0144 26.0149 22.4338 25.6945 22.4389 25.1211C22.4463 24.5622 22.4449 24.0026 22.4435 23.4428C22.443 23.2193 22.4424 22.9954 22.4424 22.7718V22.3178C22.5903 22.3864 22.6622 22.4665 22.7278 22.5521C23.4791 23.5379 24.2287 24.5243 24.9783 25.5126C25.1642 25.7606 25.377 25.942 25.7107 25.8263C26.0375 25.7133 26.1411 25.4634 26.1411 25.1393C26.1404 24.5438 26.1407 23.9483 26.1409 23.353V23.3492C26.1413 22.3681 26.1418 21.3869 26.1382 20.4057ZM28.7262 20.9529L28.6989 20.9557C28.6732 20.9582 28.648 20.9606 28.6236 20.9626C28.6197 20.9725 28.6161 20.9813 28.6127 20.9891C28.609 20.9979 28.6056 21.0055 28.6026 21.0122C28.5933 21.033 28.5875 21.0459 28.5865 21.0594C28.5363 21.6192 28.5116 21.8948 28.6375 22.0304C28.7596 22.1618 29.0232 22.1618 29.5423 22.1618C29.6341 22.1619 29.7256 22.1615 29.817 22.1611C30.009 22.1603 30.2003 22.1594 30.392 22.163C30.7986 22.171 31.0469 22.3888 31.0615 22.7417C31.0783 23.1343 30.8452 23.388 30.401 23.4053C30.067 23.4177 29.732 23.4156 29.3971 23.4135C29.2208 23.4124 29.0445 23.4113 28.8684 23.4123C28.8123 23.4129 28.7564 23.4195 28.6947 23.4268C28.6644 23.4303 28.6326 23.4341 28.5988 23.4374V24.615C28.742 24.615 28.8848 24.6147 29.0271 24.6144C29.4286 24.6137 29.8268 24.6129 30.2241 24.6183C30.3729 24.6195 30.5285 24.6309 30.6728 24.6768C30.9419 24.7626 31.0721 24.9684 31.0626 25.267C31.0542 25.5517 30.9149 25.7344 30.6582 25.8128C30.5448 25.8475 30.4246 25.8643 30.3067 25.8655C29.5901 25.8686 28.874 25.8697 28.1551 25.8662C27.6154 25.8639 27.379 25.6239 27.3779 25.0591C27.3722 23.5416 27.3722 22.0233 27.3779 20.5052C27.379 19.9314 27.6002 19.7085 28.1529 19.707C28.924 19.7052 29.6951 19.707 30.4662 19.709C30.7633 19.7099 30.9733 19.8627 31.0452 20.1566C31.1188 20.4447 31.0373 20.7113 30.7633 20.8445C30.6234 20.9131 30.4499 20.9247 30.2915 20.9294C30.0286 20.9361 29.7646 20.9354 29.5006 20.9347C29.33 20.9342 29.1594 20.9338 28.9891 20.9353C28.8988 20.9356 28.8096 20.9445 28.7262 20.9529ZM16.9221 24.6166C16.8342 24.606 16.7457 24.6075 16.6573 24.609C16.6261 24.6095 16.5949 24.6101 16.5638 24.6101C16.2341 24.6095 15.9053 24.6097 15.5628 24.6099L15.0202 24.6101V24.1491C15.0202 23.8256 15.0204 23.502 15.0206 23.1784C15.021 22.2904 15.0214 21.4021 15.0186 20.5143C15.0169 19.9974 14.7966 19.7094 14.4197 19.7063C14.0293 19.7025 13.8181 19.9779 13.8181 20.502L13.818 20.5624C13.817 22.0823 13.8159 23.6013 13.8192 25.1218C13.8215 25.6112 14.0502 25.8508 14.5223 25.8606C14.9459 25.8683 16.5368 25.8753 16.9069 25.8554C17.268 25.8343 17.5192 25.5568 17.5142 25.2281C17.5085 24.9125 17.268 24.6592 16.9221 24.6166ZM19.3703 19.7063C19.8242 19.7069 19.974 19.8547 19.9776 20.3216C19.9794 20.9425 19.9792 21.5626 19.979 22.1828C19.9789 22.3897 19.9788 22.5966 19.9788 22.8036C19.9788 23.005 19.9789 23.2063 19.979 23.4076C19.9792 24.011 19.9794 24.614 19.9776 25.2173C19.9752 25.6985 19.8076 25.8708 19.358 25.8684C18.9207 25.8676 18.7519 25.702 18.7507 25.2407C18.7454 23.5966 18.7454 21.9536 18.7507 20.3101C18.7519 19.8463 18.9082 19.7051 19.3703 19.7063Z" fill="#3D3D3D"/>
</svg>
