<svg width="41" height="39" viewBox="0 0 41 39" fill="none" xmlns="http://www.w3.org/2000/svg">
<path fill-rule="evenodd" clip-rule="evenodd" d="M41 22.9699C41 11.3886 31.8218 2 20.4999 2C9.17802 2 0 11.3886 0 22.9699C0 29.4001 2.83025 35.1533 7.285 39H33.7148C38.1695 35.1533 41 29.4001 41 22.9699Z" fill="#2E2E2E"/>
<mask id="mask0_4_552" style="mask-type:alpha" maskUnits="userSpaceOnUse" x="4" y="2" width="34" height="37">
<path fill-rule="evenodd" clip-rule="evenodd" d="M4 2H38V39H4V2Z" fill="white"/>
</mask>
<g mask="url(#mask0_4_552)">
<path fill-rule="evenodd" clip-rule="evenodd" d="M16.0552 27.9781C16.055 30.1178 16.0678 32.2575 16.0523 34.397C16.0197 38.9436 14.1692 42.6146 10.6269 45.4563C9.78424 46.1325 9.0449 46.1674 8.08352 45.6197C6.91784 44.9557 5.74883 44.2974 4.58248 43.6346C4.26594 43.4546 3.96049 43.2694 4.00419 42.8248C4.04545 42.4048 4.36798 42.2902 4.68674 42.1588C7.94 40.8176 9.85877 37.9708 9.86299 34.4678C9.86876 29.8828 9.71304 25.2913 9.91112 20.7147C10.1593 14.9808 13.0242 10.7633 18.2364 8.29098C23.9858 5.56385 30.8697 7.3003 34.8527 12.1534C37.2515 15.0765 38.2872 18.4529 37.9319 22.1961C37.3691 28.1214 32.9992 32.7188 27.568 34.2647C26.2191 34.6485 24.8303 34.7907 23.4286 34.7993C22.4566 34.8051 21.4841 34.8073 20.5121 34.8002C19.7344 34.7947 19.3819 34.4482 19.3781 33.6841C19.3719 32.3935 19.3734 31.1029 19.3774 29.8123C19.3801 29.0175 19.7275 28.6704 20.5314 28.6629C21.8275 28.6505 23.1265 28.7009 24.4193 28.63C28.1348 28.4261 31.483 25.4022 31.7785 21.5272C32.0779 17.5989 29.4626 14.4215 26.1868 13.4518C22.4768 12.3533 18.3748 14.2075 16.7981 17.7519C16.2934 18.8864 16.0536 20.0681 16.0547 21.3045C16.0567 23.5291 16.0554 25.7536 16.0552 27.9781Z" fill="#FEFEFE"/>
</g>
</svg>
