<svg width="232" height="66" viewBox="0 0 232 66" fill="none" xmlns="http://www.w3.org/2000/svg">
<mask id="mask0_0_845" style="mask-type:alpha" maskUnits="userSpaceOnUse" x="0" y="0" width="35" height="66">
<path fill-rule="evenodd" clip-rule="evenodd" d="M0 0H34.5483V66H0V0Z" fill="white"/>
</mask>
<g mask="url(#mask0_0_845)">
<path fill-rule="evenodd" clip-rule="evenodd" d="M24.0164 17.0955C27.5356 13.0171 30.4183 8.63635 31.6337 2.86655C29.7633 3.37251 28.7648 4.24704 28.0898 5.38204C25.9428 8.99264 24.9355 13.0223 24.0164 17.0955ZM31.2745 33.8349C29.2643 34.3599 26.5299 31.464 25.1584 30.554C23.7533 29.6212 22.4691 28.5042 20.8886 27.2792C20.5118 28.1449 20.204 28.7913 19.9454 29.4568C15.5306 40.8178 10.3061 51.801 4.60571 62.5601C4.07423 63.5635 3.50609 64.5942 2.73806 65.405C2.32875 65.8366 1.35199 66.1274 0.811687 65.9443C-0.180686 65.6085 -0.152177 64.7019 0.305658 63.808C1.08557 62.285 1.88721 60.7688 2.57108 59.2022C6.64001 49.8821 10.6798 40.5494 14.7198 31.2171C14.9398 30.7088 15.0765 30.1639 15.4617 29.0058C13.8279 29.869 12.6326 30.4619 11.4749 31.1213C9.58081 32.1997 7.7308 33.3582 5.81529 34.3961C5.41006 34.6157 4.80392 34.4598 4.29042 34.4769C4.35728 33.8932 4.20693 33.0848 4.53173 32.7674C5.47319 31.8468 6.56772 31.0647 7.67141 30.3344C9.88626 28.8694 12.1612 27.4964 14.3821 26.0402C15.3267 25.4211 16.1975 24.6891 17.1247 23.9911C16.8658 23.0948 16.6384 22.3093 16.3326 21.2513C18.4439 21.3969 18.7396 19.9233 19.2218 18.4938C20.5264 14.6244 21.7638 10.7178 23.3559 6.96677C24.1477 5.10079 25.5195 3.41584 26.8978 1.89523C27.6712 1.04185 28.9331 0.456785 30.0799 0.158799C32.8255 -0.554456 34.8028 1.20482 34.5215 4.03602C34.4101 5.15363 34.0467 6.27159 33.6445 7.33056C31.4517 13.1041 28.2886 18.2435 23.6953 22.4276C23.0651 23.0017 22.4674 23.6117 21.8602 24.2104C21.7981 24.2717 21.7747 24.372 21.6288 24.6608C24.3907 27.0849 28.893 30.6604 31.7011 33.125C31.5589 33.3617 31.4167 33.5979 31.2745 33.8349Z" fill="#2E2E2E"/>
</g>
<path fill-rule="evenodd" clip-rule="evenodd" d="M147.856 3.469C144.203 4.27397 139.701 9.67179 137.891 15.0359C142.322 12.1331 145.793 8.70522 147.856 3.469ZM129.35 23.5003C126.739 23.5177 124.607 25.6448 121.904 23.7056C122.677 23.1958 123.198 22.6091 123.809 22.4891C129.349 21.4021 132.773 17.9889 135.358 13.0613C137.007 9.91811 139.573 7.23181 141.905 4.49266C142.792 3.45039 144.105 2.69248 145.353 2.0648C146.469 1.50394 147.784 1.4378 148.814 2.40506C149.908 3.43369 149.536 4.66654 149.062 5.84144C147.792 8.9829 145.897 11.7064 143.328 13.8922C140.943 15.9201 138.393 17.752 136.019 19.7919C135.051 20.6241 134.019 21.6548 133.603 22.8085C132.48 25.92 131.307 29.0914 130.827 32.3396C130.132 37.0385 131.759 38.2107 136.054 36.2434C140.002 34.4347 143.776 32.2315 147.591 30.1375C148.574 29.5978 149.552 28.4801 150.489 29.8354C151.312 31.0243 150.337 32.0266 149.428 32.7293C145.133 36.0515 140.545 38.9188 135.427 40.7531C130.757 42.4265 127.126 40.1268 126.905 35.1422C126.785 32.4576 127.587 29.7171 128.098 27.0257C128.308 25.922 128.847 24.8818 129.35 23.5003Z" fill="#2E2E2E"/>
<path fill-rule="evenodd" clip-rule="evenodd" d="M42.0276 30.2503C42.364 29.2677 41.844 27.7635 39.8267 27.7635C38.5122 27.7635 37.3814 28.7461 36.9531 30.2503H42.0276ZM34.3242 32.1553C34.3242 28.8989 37.1367 26.5352 39.9794 26.5352C42.6999 26.5352 44.8703 28.7458 44.1369 31.3868H36.7698C36.4029 34.2736 37.5952 36.5146 40.7437 36.5146C41.7524 36.5146 43.2199 35.9319 44.1064 35.1034L44.6565 35.7775C43.5868 36.9145 41.7218 37.8058 39.9794 37.8058C36.6171 37.8058 34.3242 35.2565 34.3242 32.1553Z" fill="#2E2E2E"/>
<path fill-rule="evenodd" clip-rule="evenodd" d="M46.9207 36.6377C48.938 36.6377 49.3354 36.1164 49.3354 33.0455V31.5099C49.3354 28.4393 48.938 27.9477 46.9207 27.9477V27.3023L50.9862 26.5352C51.1393 26.8423 51.4142 28.1021 51.5058 28.7462C52.3312 27.7022 53.7067 26.5352 55.4797 26.5352C57.3443 26.5352 58.3228 27.425 58.7507 28.8389C59.4536 27.8249 61.2266 26.5352 63.0301 26.5352C65.751 26.5352 66.5458 28.5007 66.5458 31.1103V33.0455C66.5458 36.1164 66.9432 36.6377 68.9606 36.6377V37.2834H62.4799V36.6377C64.1613 36.6377 64.3754 36.3005 64.3754 33.0455V31.2644C64.3754 29.2675 63.7944 27.9791 62.205 27.9791C61.1655 27.9791 59.0256 29.1447 59.0256 31.0499V33.0455C59.0256 36.3005 59.2398 36.6377 60.9517 36.6377V37.2834H54.9296V36.6377C56.6109 36.6377 56.8552 36.3005 56.8552 33.0455V31.2644C56.8552 29.2675 56.244 27.9791 54.6546 27.9791C53.5846 27.9791 51.5058 29.1447 51.5058 31.0499V33.0455C51.5058 36.2391 51.72 36.6377 53.4013 36.6377V37.2834H46.9207V36.6377Z" fill="#2E2E2E"/>
<path fill-rule="evenodd" clip-rule="evenodd" d="M72.8776 22.1432C72.8776 21.406 73.4889 20.792 74.2226 20.792C74.9564 20.792 75.5676 21.406 75.5676 22.1432C75.5676 22.9113 74.9564 23.5257 74.2226 23.5257C73.4889 23.5257 72.8776 22.9113 72.8776 22.1432ZM70.7378 36.6379C72.7555 36.6379 73.1529 36.1162 73.1529 33.0457V31.5101C73.1529 28.4392 72.7555 27.9479 70.7378 27.9479V27.3021L75.3233 26.5353V33.0457C75.3233 36.1162 75.6902 36.6379 77.738 36.6379V37.2833H70.7378V36.6379Z" fill="#2E2E2E"/>
<path fill-rule="evenodd" clip-rule="evenodd" d="M79.4818 36.6377C81.4994 36.6377 81.8968 36.1164 81.8968 33.0455V31.5099C81.8968 28.4393 81.4994 27.9477 79.4818 27.9477V27.3023L83.5473 26.5352C83.7003 26.8423 83.9753 28.1021 84.0672 28.7462C84.8923 27.7022 86.2987 26.5352 88.316 26.5352C91.0674 26.5352 92.2899 28.5007 92.2899 31.1103V33.0455C92.2899 36.1164 92.6568 36.6377 94.705 36.6377V37.2834H87.7048V36.6377C89.6916 36.6377 90.1195 36.1164 90.1195 33.0455V31.2644C90.1195 29.2675 89.4167 27.9791 87.5826 27.9791C85.9013 27.9791 84.0672 29.3606 84.0672 31.0499V33.0455C84.0672 36.2091 84.3116 36.6377 86.2067 36.6377V37.2834H79.4818V36.6377Z" fill="#2E2E2E"/>
<path fill-rule="evenodd" clip-rule="evenodd" d="M98.5901 22.1432C98.5901 21.406 99.2013 20.792 99.9351 20.792C100.669 20.792 101.28 21.406 101.28 22.1432C101.28 22.9113 100.669 23.5257 99.9351 23.5257C99.2013 23.5257 98.5901 22.9113 98.5901 22.1432ZM96.4503 36.6379C98.468 36.6379 98.8654 36.1162 98.8654 33.0457V31.5101C98.8654 28.4392 98.468 27.9479 96.4503 27.9479V27.3021L101.036 26.5353V33.0457C101.036 36.1162 101.402 36.6379 103.451 36.6379V37.2833H96.4503V36.6379Z" fill="#2E2E2E"/>
<path fill-rule="evenodd" clip-rule="evenodd" d="M105.5 33.321H106.142C106.142 34.7035 107.303 36.7604 109.474 36.7604C110.482 36.7604 111.216 36.055 111.216 35.1948C111.216 34.4263 110.544 33.875 109.504 33.321L107.793 32.4011C106.325 31.6012 105.775 30.3128 105.775 29.3302C105.775 27.6705 107.303 26.5352 108.862 26.5352C110.452 26.5352 111.064 27.2419 111.461 27.2419C111.583 27.2419 111.644 27.0265 111.644 26.5352H112.286V30.0973H111.644C111.644 28.8075 110.727 27.5178 109.168 27.5178C108.129 27.5178 107.609 28.0704 107.609 28.8389C107.609 29.576 108.098 29.9746 109.474 30.7114L110.941 31.5099C112.286 32.2784 113.05 33.3523 113.05 34.458C113.05 36.4846 111.4 37.8058 109.413 37.8058C108.037 37.8058 106.967 36.8231 106.539 36.8231C106.264 36.8231 106.142 37.0686 106.142 37.8058H105.5V33.321Z" fill="#2E2E2E"/>
<path fill-rule="evenodd" clip-rule="evenodd" d="M160.693 34.8276V31.695C157.789 32.3707 156.475 33.3833 156.475 34.7348C156.475 35.7171 157.147 36.3015 157.912 36.3015C158.553 36.3015 159.287 36.0856 160.693 34.8276ZM154.182 35.1034C154.182 32.4935 157.208 31.3581 160.693 30.7437C160.693 28.44 160.387 27.5187 158.645 27.5187C157.942 27.5187 156.902 28.01 156.902 28.993C156.902 29.607 156.444 30.067 155.863 30.067C155.252 30.067 154.793 29.607 154.793 28.993C154.793 27.5187 156.719 26.5361 158.676 26.5361C161.641 26.5361 162.864 27.7959 162.864 30.7124V35.3485C162.864 36.117 163.108 36.5473 163.567 36.5473C163.872 36.5473 164.208 36.3015 164.422 36.0856L164.85 36.67C164.27 37.2841 163.505 37.6226 162.833 37.6226C161.641 37.6226 160.907 36.9455 160.754 35.8402C159.256 37.1913 158.156 37.6826 156.933 37.6826C155.435 37.6826 154.182 36.7314 154.182 35.1034Z" fill="#2E2E2E"/>
<path fill-rule="evenodd" clip-rule="evenodd" d="M166.503 36.6397C168.52 36.6397 168.918 36.117 168.918 33.0461V31.5108C168.918 28.44 168.52 27.9487 166.503 27.9487V27.3043L170.569 26.5361C170.722 26.843 170.997 28.1014 171.089 28.7472C171.914 27.7028 173.32 26.5361 175.337 26.5361C178.089 26.5361 179.311 28.5013 179.311 31.1123V33.0461C179.311 36.117 179.678 36.6397 181.726 36.6397V37.2841H174.726V36.6397C176.713 36.6397 177.141 36.117 177.141 33.0461V31.265C177.141 29.2698 176.438 27.9787 174.604 27.9787C172.923 27.9787 171.089 29.3612 171.089 31.0496V33.0461C171.089 36.2084 171.333 36.6397 173.228 36.6397V37.2841H166.503V36.6397Z" fill="#2E2E2E"/>
<path fill-rule="evenodd" clip-rule="evenodd" d="M191.73 34.1521V30.1897C191.18 28.7471 190.018 27.7645 188.643 27.7645C186.258 27.7645 185.158 29.6984 185.158 32.1552C185.158 34.612 186.258 36.5772 188.643 36.5772C190.018 36.5772 191.18 35.5943 191.73 34.1521ZM182.682 32.1553C182.682 29.0545 185.097 26.5366 188.001 26.5366C189.529 26.5366 190.813 27.212 191.73 28.3477V23.3426C191.73 20.2717 191.363 19.7491 189.315 19.7491V19.105L193.901 18.3379V33.0779C193.901 35.9944 194.389 36.3629 196.01 36.3629V36.9456L192.25 37.7141C192.097 37.4072 191.852 36.4246 191.76 35.9333C190.905 37.0087 189.682 37.8058 188.001 37.8058C185.097 37.8058 182.682 35.2576 182.682 32.1553Z" fill="#2E2E2E"/>
<path fill-rule="evenodd" clip-rule="evenodd" d="M205.129 30.2527C205.465 29.2701 204.946 27.7645 202.928 27.7645C201.614 27.7645 200.483 28.7471 200.055 30.2527H205.129ZM197.426 32.1549C197.426 28.9013 200.238 26.5361 203.081 26.5361C205.801 26.5361 207.972 28.7468 207.238 31.3881H199.872C199.505 34.2745 200.697 36.5173 203.846 36.5173C204.854 36.5173 206.321 35.9329 207.208 35.103L207.758 35.7798C206.688 36.9152 204.824 37.8054 203.081 37.8054C199.719 37.8054 197.426 35.2571 197.426 32.1549Z" fill="#2E2E2E"/>
<path fill-rule="evenodd" clip-rule="evenodd" d="M209.866 36.6397C211.884 36.6397 212.281 36.117 212.281 33.0461V31.5108C212.281 28.44 211.884 27.9487 209.866 27.9487V27.3043L213.932 26.5361C214.085 26.843 214.36 28.1014 214.452 28.7472C215.063 27.5187 216.439 26.5361 217.661 26.5361C219.343 26.5361 220.076 27.6728 220.076 28.44C220.076 29.1154 219.801 29.8839 218.853 29.8839C218.273 29.8839 217.784 29.3612 217.784 28.7785C217.784 28.1328 217.417 27.7642 216.805 27.7642C216.102 27.7642 214.452 28.9013 214.452 31.3578V33.0461C214.452 36.117 214.818 36.6397 216.867 36.6397V37.2841H209.866V36.6397Z" fill="#2E2E2E"/>
<mask id="mask1_0_845" style="mask-type:alpha" maskUnits="userSpaceOnUse" x="221" y="26" width="11" height="12">
<path fill-rule="evenodd" clip-rule="evenodd" d="M221.668 26.5361H232V37.8054H221.668V26.5361Z" fill="white"/>
</mask>
<g mask="url(#mask1_0_845)">
<path fill-rule="evenodd" clip-rule="evenodd" d="M229.371 30.2527C229.707 29.2701 229.188 27.7645 227.17 27.7645C225.856 27.7645 224.725 28.7471 224.297 30.2527H229.371ZM221.668 32.1549C221.668 28.9013 224.48 26.5361 227.323 26.5361C230.043 26.5361 232.214 28.7468 231.48 31.3881H224.113C223.746 34.2745 224.938 36.5173 228.087 36.5173C229.096 36.5173 230.563 35.9329 231.45 35.103L232 35.7798C230.93 36.9152 229.065 37.8054 227.323 37.8054C223.961 37.8054 221.668 35.2571 221.668 32.1549Z" fill="#2E2E2E"/>
</g>
<mask id="mask2_0_845" style="mask-type:alpha" maskUnits="userSpaceOnUse" x="0" y="0" width="232" height="66">
<path fill-rule="evenodd" clip-rule="evenodd" d="M0 66H232V0H0V66Z" fill="white"/>
</mask>
<g mask="url(#mask2_0_845)">
<path fill-rule="evenodd" clip-rule="evenodd" d="M198.942 23.3925H206.903V22.293H198.942V23.3925Z" fill="#2E2E2E"/>
</g>
</svg>
