<svg width="49" height="70" viewBox="0 0 49 70" fill="none" xmlns="http://www.w3.org/2000/svg">
<mask id="mask0_0_884" style="mask-type:alpha" maskUnits="userSpaceOnUse" x="0" y="3" width="45" height="67">
<path fill-rule="evenodd" clip-rule="evenodd" d="M0 3.09863H44.5628V69.9999H0V3.09863Z" fill="white"/>
</mask>
<g mask="url(#mask0_0_884)">
<path fill-rule="evenodd" clip-rule="evenodd" d="M16.2399 51.3777C-13.294 43.6682 19.0088 24.8453 27.8446 51.9942C23.828 52.5642 20.1653 52.4024 16.2399 51.3777ZM44.5236 40.7149C42.5283 23.3689 12.1273 25.562 17.5816 3.09863C10.441 19.9119 26.3242 25.0354 35.0957 33.3295C41.2929 39.1696 38.8612 49.5892 30.5635 51.4811C28.7812 43.2316 21.3714 36.2152 12.7969 35.44C10.5637 35.2391 8.24218 35.3658 6.11242 36.1116C1.05874 37.9137 -1.52289 44.282 0.94813 49.0858C4.94886 56.705 21.2727 59.1011 29.0558 57.5534C29.5337 61.6949 28.7905 65.9688 27.7647 69.9999C29.6692 66.0426 31.3275 61.5269 31.3439 57.0996C38.83 55.541 45.1198 48.9231 44.5236 40.7149Z" fill="#2E2E2E"/>
</g>
<path fill-rule="evenodd" clip-rule="evenodd" d="M20.1393 0C19.0395 6.03019 19.8384 12.0247 24.5518 16.3302C31.4978 23.0202 43.3066 25.4303 47.4263 33.881C49.0818 37.2771 48.4068 41.9916 47.2916 45.5185C49.343 33.4275 41.6737 28.7542 32.5665 23.7979C22.5935 18.5181 16.2815 11.8738 20.1393 0Z" fill="#2E2E2E"/>
</svg>
