<svg width="41" height="37" viewBox="0 0 41 37" fill="none" xmlns="http://www.w3.org/2000/svg">
<path d="M20.4999 0C31.8218 0 41 9.38861 41 20.9699C41 27.4001 38.1695 33.1533 33.7148 37H15.3057C15.7896 35.5793 16.0405 34.0457 16.0523 32.3969C16.0629 30.9325 16.0603 29.4679 16.0576 28.0034C16.0563 27.3283 16.0551 26.6532 16.0552 25.9781C16.0552 25.4224 16.0554 24.8668 16.0555 24.3111C16.0559 22.6423 16.0562 20.9734 16.0547 19.3045C16.0536 18.0681 16.2934 16.8864 16.7981 15.7519C18.3748 12.2075 22.4768 10.3533 26.1868 11.4518C29.4626 12.4215 32.0779 15.5989 31.7785 19.5272C31.483 23.4022 28.1348 26.4261 24.4193 26.63C23.5672 26.6767 22.7125 26.6708 21.8577 26.6648C21.4155 26.6617 20.9733 26.6587 20.5314 26.6629C19.7275 26.6704 19.3801 27.0175 19.3774 27.8123C19.3734 29.1029 19.3719 30.3935 19.3781 31.6841C19.3819 32.4482 19.7344 32.7947 20.5121 32.8002C21.4841 32.8073 22.4566 32.8051 23.4286 32.7993C24.8303 32.7907 26.2191 32.6485 27.568 32.2647C32.9992 30.7188 37.3691 26.1214 37.9319 20.1961C38.2872 16.4529 37.2515 13.0765 34.8527 10.1534C30.8697 5.3003 23.9858 3.56385 18.2364 6.29098C13.0242 8.76327 10.1593 12.9808 9.91112 18.7147C9.77512 21.857 9.8059 25.0064 9.83669 28.1558C9.85074 29.5934 9.8648 31.0309 9.86299 32.4678C9.86095 34.1647 9.40964 35.7076 8.57501 37H7.285C2.83025 33.1533 0 27.4001 0 20.9699C0 9.38861 9.17802 0 20.4999 0Z" fill="#2E2E2E"/>
</svg>
