<svg width="218" height="61" viewBox="0 0 218 61" fill="none" xmlns="http://www.w3.org/2000/svg">
<mask id="mask0_7_4422" style="mask-type:alpha" maskUnits="userSpaceOnUse" x="10" y="15" width="19" height="36">
<path fill-rule="evenodd" clip-rule="evenodd" d="M10 15H28.7633V51H10V15Z" fill="white"/>
</mask>
<g mask="url(#mask0_7_4422)">
<path fill-rule="evenodd" clip-rule="evenodd" d="M23.0434 24.325C24.9547 22.1004 26.5203 19.7109 27.1804 16.5637C26.1646 16.8397 25.6223 17.3167 25.2557 17.9358C24.0897 19.9052 23.5426 22.1032 23.0434 24.325ZM26.9853 33.4554C25.8936 33.7418 24.4085 32.1622 23.6636 31.6658C22.9005 31.157 22.2031 30.5478 21.3447 29.8796C21.1401 30.3517 20.9729 30.7043 20.8324 31.0674C18.4348 37.2642 15.5973 43.2551 12.5014 49.1237C12.2127 49.671 11.9042 50.2332 11.4871 50.6754C11.2648 50.9109 10.7343 51.0695 10.4408 50.9696C9.90188 50.7865 9.91736 50.292 10.166 49.8044C10.5896 48.9736 11.025 48.1466 11.3964 47.2921C13.6062 42.2084 15.8002 37.1179 17.9944 32.0275C18.1138 31.7502 18.1881 31.4531 18.3973 30.8213C17.51 31.2922 16.8608 31.6156 16.2321 31.9753C15.2034 32.5635 14.1986 33.1954 13.1583 33.7615C12.9382 33.8813 12.609 33.7963 12.3302 33.8056C12.3665 33.4872 12.2848 33.0463 12.4612 32.8731C12.9725 32.371 13.567 31.9444 14.1664 31.546C15.3693 30.7469 16.6048 29.998 17.811 29.2038C18.324 28.866 18.7969 28.4668 19.3005 28.0861C19.1599 27.5972 19.0364 27.1687 18.8703 26.5916C20.017 26.671 20.1775 25.8673 20.4395 25.0875C21.148 22.9769 21.82 20.8461 22.6847 18.8001C23.1147 17.7822 23.8598 16.8632 24.6083 16.0338C25.0284 15.5683 25.7137 15.2492 26.3365 15.0866C27.8277 14.6976 28.9015 15.6572 28.7487 17.2015C28.6883 17.8111 28.4909 18.4209 28.2724 18.9985C27.0815 22.1477 25.3636 24.951 22.869 27.2332C22.5267 27.5464 22.2021 27.8791 21.8724 28.2057C21.8386 28.2391 21.8259 28.2938 21.7467 28.4513C23.2467 29.7736 25.6919 31.7238 27.217 33.0682C27.1398 33.1973 27.0626 33.3261 26.9853 33.4554Z" fill="#2E2E2E"/>
</g>
<path fill-rule="evenodd" clip-rule="evenodd" d="M90.3009 16.8917C88.3173 17.3307 85.872 20.275 84.8892 23.2009C87.2954 21.6175 89.1808 19.7478 90.3009 16.8917ZM80.2504 27.8177C78.8322 27.8272 77.6745 28.9875 76.2063 27.9297C76.6264 27.6517 76.9092 27.3316 77.2411 27.2661C80.2498 26.6733 82.1096 24.8115 83.5136 22.1237C84.4091 20.4093 85.8027 18.944 87.069 17.4499C87.551 16.8814 88.2638 16.468 88.9419 16.1256C89.5476 15.8197 90.2621 15.7836 90.8211 16.3112C91.4157 16.8723 91.2137 17.5448 90.956 18.1856C90.2665 19.8991 89.2374 21.3847 87.8417 22.5769C86.5469 23.6831 85.1615 24.6823 83.8725 25.7949C83.3466 26.2489 82.7863 26.8111 82.5603 27.4404C81.9504 29.1376 81.3132 30.8674 81.0526 32.6392C80.6752 35.2022 81.5585 35.8416 83.8911 34.7685C86.0357 33.782 88.085 32.5802 90.157 31.438C90.6912 31.1436 91.2222 30.534 91.7313 31.2732C92.1779 31.9217 91.6484 32.4685 91.1549 32.8517C88.8221 34.6638 86.3303 36.2278 83.5507 37.2283C81.0146 38.1411 79.0425 36.8867 78.9225 34.1678C78.8576 32.7035 79.293 31.2087 79.5706 29.7407C79.6843 29.1387 79.9772 28.5713 80.2504 27.8177Z" fill="#2E2E2E"/>
<path fill-rule="evenodd" clip-rule="evenodd" d="M32.8253 31.5C33.008 30.964 32.7256 30.1435 31.63 30.1435C30.9161 30.1435 30.3019 30.6795 30.0693 31.5H32.8253ZM28.6415 32.5392C28.6415 30.763 30.169 29.4736 31.7129 29.4736C33.1905 29.4736 34.3692 30.6795 33.9709 32.12H29.9698C29.7705 33.6946 30.418 34.917 32.128 34.917C32.6758 34.917 33.4728 34.5991 33.9543 34.1472L34.2531 34.5149C33.6721 35.1351 32.6592 35.6212 31.7129 35.6212C29.8868 35.6212 28.6415 34.2307 28.6415 32.5392Z" fill="#2E2E2E"/>
<path fill-rule="evenodd" clip-rule="evenodd" d="M35.4828 34.9841C36.5784 34.9841 36.7942 34.6998 36.7942 33.0247V32.1871C36.7942 30.5123 36.5784 30.2441 35.4828 30.2441V29.8921L37.6908 29.4736C37.7739 29.6412 37.9232 30.3283 37.973 30.6796C38.4213 30.1102 39.1683 29.4736 40.1312 29.4736C41.1439 29.4736 41.6753 29.959 41.9077 30.7302C42.2895 30.1772 43.2524 29.4736 44.2319 29.4736C45.7096 29.4736 46.1413 30.5457 46.1413 31.9692V33.0247C46.1413 34.6998 46.3571 34.9841 47.4527 34.9841V35.3363H43.9331V34.9841C44.8462 34.9841 44.9625 34.8002 44.9625 33.0247V32.0532C44.9625 30.964 44.647 30.2612 43.7838 30.2612C43.2192 30.2612 42.057 30.897 42.057 31.9362V33.0247C42.057 34.8002 42.1733 34.9841 43.1031 34.9841V35.3363H39.8324V34.9841C40.7456 34.9841 40.8783 34.8002 40.8783 33.0247V32.0532C40.8783 30.964 40.5463 30.2612 39.6831 30.2612C39.102 30.2612 37.973 30.897 37.973 31.9362V33.0247C37.973 34.7667 38.0893 34.9841 39.0024 34.9841V35.3363H35.4828V34.9841Z" fill="#2E2E2E"/>
<path fill-rule="evenodd" clip-rule="evenodd" d="M49.5801 27.0778C49.5801 26.6758 49.912 26.3408 50.3105 26.3408C50.7091 26.3408 51.041 26.6758 51.041 27.0778C51.041 27.4968 50.7091 27.8319 50.3105 27.8319C49.912 27.8319 49.5801 27.4968 49.5801 27.0778ZM48.4179 34.9841C49.5137 34.9841 49.7296 34.6996 49.7296 33.0247V32.1871C49.7296 30.5121 49.5137 30.2441 48.4179 30.2441V29.8919L50.9083 29.4736V33.0247C50.9083 34.6996 51.1076 34.9841 52.2198 34.9841V35.3362H48.4179V34.9841Z" fill="#2E2E2E"/>
<path fill-rule="evenodd" clip-rule="evenodd" d="M53.1668 34.9841C54.2626 34.9841 54.4785 34.6998 54.4785 33.0247V32.1871C54.4785 30.5123 54.2626 30.2441 53.1668 30.2441V29.8921L55.3748 29.4736C55.458 29.6412 55.6073 30.3283 55.6572 30.6796C56.1053 30.1102 56.8691 29.4736 57.9648 29.4736C59.4591 29.4736 60.123 30.5457 60.123 31.9692V33.0247C60.123 34.6998 60.3222 34.9841 61.4346 34.9841V35.3363H57.6328V34.9841C58.7118 34.9841 58.9442 34.6998 58.9442 33.0247V32.0532C58.9442 30.964 58.5625 30.2612 57.5664 30.2612C56.6533 30.2612 55.6572 31.0148 55.6572 31.9362V33.0247C55.6572 34.7503 55.7899 34.9841 56.8192 34.9841V35.3363H53.1668V34.9841Z" fill="#2E2E2E"/>
<path fill-rule="evenodd" clip-rule="evenodd" d="M63.5446 27.0778C63.5446 26.6758 63.8766 26.3408 64.2751 26.3408C64.6736 26.3408 65.0056 26.6758 65.0056 27.0778C65.0056 27.4968 64.6736 27.8319 64.2751 27.8319C63.8766 27.8319 63.5446 27.4968 63.5446 27.0778ZM62.3825 34.9841C63.4783 34.9841 63.6941 34.6996 63.6941 33.0247V32.1871C63.6941 30.5121 63.4783 30.2441 62.3825 30.2441V29.8919L64.8729 29.4736V33.0247C64.8729 34.6996 65.0719 34.9841 66.1843 34.9841V35.3362H62.3825V34.9841Z" fill="#2E2E2E"/>
<path fill-rule="evenodd" clip-rule="evenodd" d="M67.2974 33.175H67.6459C67.6459 33.9291 68.2769 35.051 69.4556 35.051C70.0034 35.051 70.4019 34.6663 70.4019 34.1971C70.4019 33.7779 70.0366 33.4772 69.4722 33.175L68.5425 32.6732C67.7457 32.237 67.4469 31.5342 67.4469 30.9982C67.4469 30.0929 68.2769 29.4736 69.1235 29.4736C69.9868 29.4736 70.319 29.8591 70.5346 29.8591C70.6012 29.8591 70.6344 29.7416 70.6344 29.4736H70.9829V31.4166H70.6344C70.6344 30.7131 70.1363 30.0096 69.2895 30.0096C68.7251 30.0096 68.4429 30.3111 68.4429 30.7302C68.4429 31.1323 68.7086 31.3497 69.4556 31.7516L70.2524 32.1871C70.9829 32.6063 71.398 33.1921 71.398 33.7952C71.398 34.9006 70.5015 35.6212 69.4224 35.6212C68.6754 35.6212 68.0942 35.0853 67.8618 35.0853C67.7123 35.0853 67.6459 35.2192 67.6459 35.6212H67.2974V33.175Z" fill="#2E2E2E"/>
<path fill-rule="evenodd" clip-rule="evenodd" d="M97.273 33.997V32.2884C95.6958 32.6569 94.9819 33.2093 94.9819 33.9465C94.9819 34.4822 95.3472 34.801 95.7623 34.801C96.1108 34.801 96.5092 34.6833 97.273 33.997ZM93.7367 34.1477C93.7367 32.7241 95.3802 32.1048 97.273 31.7697C97.273 30.5131 97.1069 30.0106 96.1606 30.0106C95.7788 30.0106 95.2143 30.2786 95.2143 30.8147C95.2143 31.1496 94.9652 31.4005 94.6499 31.4005C94.3179 31.4005 94.0687 31.1496 94.0687 30.8147C94.0687 30.0106 95.1147 29.4746 96.1774 29.4746C97.7876 29.4746 98.4517 30.1618 98.4517 31.7526V34.2814C98.4517 34.7005 98.5844 34.9352 98.8336 34.9352C98.9995 34.9352 99.182 34.8011 99.2983 34.6834L99.5307 35.0022C99.2154 35.3371 98.8003 35.5218 98.4351 35.5218C97.7876 35.5218 97.3891 35.1524 97.3062 34.5495C96.4927 35.2865 95.895 35.5545 95.2309 35.5545C94.4174 35.5545 93.7367 35.0357 93.7367 34.1477Z" fill="#2E2E2E"/>
<path fill-rule="evenodd" clip-rule="evenodd" d="M100.428 34.9856C101.524 34.9856 101.74 34.7005 101.74 33.0255V32.1881C101.74 30.5131 101.524 30.2451 100.428 30.2451V29.8936L102.636 29.4746C102.72 29.642 102.869 30.3284 102.919 30.6806C103.367 30.111 104.131 29.4746 105.226 29.4746C106.721 29.4746 107.385 30.5465 107.385 31.9707V33.0255C107.385 34.7005 107.584 34.9856 108.696 34.9856V35.3371H104.894V34.9856C105.973 34.9856 106.206 34.7005 106.206 33.0255V32.054C106.206 30.9657 105.824 30.2614 104.828 30.2614C103.915 30.2614 102.919 31.0156 102.919 31.9365V33.0255C102.919 34.7504 103.051 34.9856 104.081 34.9856V35.3371H100.428V34.9856Z" fill="#2E2E2E"/>
<path fill-rule="evenodd" clip-rule="evenodd" d="M114.129 33.6288V31.4675C113.83 30.6806 113.199 30.1447 112.452 30.1447C111.158 30.1447 110.56 31.1995 110.56 32.5396C110.56 33.8797 111.158 34.9516 112.452 34.9516C113.199 34.9516 113.83 34.4155 114.129 33.6288ZM109.215 32.5397C109.215 30.8483 110.527 29.4749 112.104 29.4749C112.934 29.4749 113.631 29.8433 114.129 30.4628V27.7328C114.129 26.0577 113.93 25.7727 112.818 25.7727V25.4214L115.308 25.0029V33.043C115.308 34.6337 115.574 34.8348 116.453 34.8348V35.1526L114.411 35.5718C114.328 35.4044 114.196 34.8684 114.146 34.6005C113.681 35.187 113.017 35.6218 112.104 35.6218C110.527 35.6218 109.215 34.2319 109.215 32.5397Z" fill="#2E2E2E"/>
<path fill-rule="evenodd" clip-rule="evenodd" d="M121.406 31.5017C121.589 30.9658 121.307 30.1445 120.211 30.1445C119.497 30.1445 118.883 30.6805 118.65 31.5017H121.406ZM117.223 32.5394C117.223 30.7647 118.75 29.4746 120.294 29.4746C121.771 29.4746 122.95 30.6804 122.552 32.1211H118.551C118.352 33.6956 118.999 34.9189 120.709 34.9189C121.257 34.9189 122.054 34.6001 122.535 34.1475L122.834 34.5166C122.253 35.1359 121.24 35.6215 120.294 35.6215C118.468 35.6215 117.223 34.2315 117.223 32.5394Z" fill="#2E2E2E"/>
<path fill-rule="evenodd" clip-rule="evenodd" d="M123.979 34.9856C125.075 34.9856 125.291 34.7005 125.291 33.0255V32.1881C125.291 30.5131 125.075 30.2451 123.979 30.2451V29.8936L126.187 29.4746C126.27 29.642 126.42 30.3284 126.47 30.6806C126.801 30.0106 127.549 29.4746 128.213 29.4746C129.126 29.4746 129.524 30.0946 129.524 30.5131C129.524 30.8815 129.375 31.3006 128.86 31.3006C128.545 31.3006 128.279 31.0156 128.279 30.6977C128.279 30.3455 128.08 30.1445 127.748 30.1445C127.366 30.1445 126.47 30.7647 126.47 32.1046V33.0255C126.47 34.7005 126.669 34.9856 127.781 34.9856V35.3371H123.979V34.9856Z" fill="#2E2E2E"/>
<mask id="mask1_7_4422" style="mask-type:alpha" maskUnits="userSpaceOnUse" x="130" y="29" width="6" height="7">
<path fill-rule="evenodd" clip-rule="evenodd" d="M130.389 29.4746H136V35.6215H130.389V29.4746Z" fill="white"/>
</mask>
<g mask="url(#mask1_7_4422)">
<path fill-rule="evenodd" clip-rule="evenodd" d="M134.572 31.5017C134.755 30.9658 134.473 30.1445 133.377 30.1445C132.663 30.1445 132.049 30.6805 131.816 31.5017H134.572ZM130.389 32.5394C130.389 30.7647 131.916 29.4746 133.46 29.4746C134.937 29.4746 136.116 30.6804 135.718 32.1211H131.717C131.517 33.6956 132.165 34.9189 133.875 34.9189C134.423 34.9189 135.22 34.6001 135.701 34.1475L136 34.5166C135.419 35.1359 134.406 35.6215 133.46 35.6215C131.634 35.6215 130.389 34.2315 130.389 32.5394Z" fill="#2E2E2E"/>
</g>
<mask id="mask2_7_4422" style="mask-type:alpha" maskUnits="userSpaceOnUse" x="10" y="15" width="126" height="36">
<path fill-rule="evenodd" clip-rule="evenodd" d="M10 51H136V15H10V51Z" fill="white"/>
</mask>
<g mask="url(#mask2_7_4422)">
<path fill-rule="evenodd" clip-rule="evenodd" d="M118.046 27.7589H122.369V27.1592H118.046V27.7589Z" fill="#2E2E2E"/>
</g>
<path d="M146.5 25.5V40.5" stroke="#2E2E2E" stroke-width="0.65" stroke-linecap="square"/>
<path fill-rule="evenodd" clip-rule="evenodd" d="M168.712 29.403C167.506 29.665 165.379 30.3879 166.004 29.4574C166.958 28.0349 168.471 26.733 168.82 25.3677C169.08 24.3465 166.224 26.4416 165.817 25.5743C165.714 25.3536 166.542 24.7766 167.149 24.5213C170.784 22.9933 171.026 25.5339 168.794 28.112C175.087 26.0876 160.388 52.1682 158.789 54.475C158.254 55.2471 156.465 55.8557 157.157 54.579C161.743 46.1106 167.533 35.4322 168.712 29.403Z" fill="#2E2E2E"/>
<path fill-rule="evenodd" clip-rule="evenodd" d="M172.604 36.2196C172.484 36.5375 172.175 35.8771 172.211 35.5757C173.03 28.6431 172.025 18.2597 169.578 19.3805C168.742 19.7635 167.881 20.078 167.35 20.8278C167.087 21.257 166.425 20.8839 166.576 20.4793C167.107 19.1263 168.702 18.2476 170.145 18.074C174.366 17.566 173.91 32.7755 172.604 36.2196Z" fill="#2E2E2E"/>
<path fill-rule="evenodd" clip-rule="evenodd" d="M169.841 39.0309C170.318 38.4401 178.312 44.9517 183.758 46.7231C184.232 46.8773 184.812 48.0921 183.534 47.7892C180.098 46.9746 168.773 40.3521 169.841 39.0309Z" fill="#2E2E2E"/>
<path fill-rule="evenodd" clip-rule="evenodd" d="M164.854 12.6325C165.508 13.5291 166.452 14.2969 167.229 15.0423C167.344 17.0583 164.151 13.4812 163.734 13.0117C162.677 14.0089 161.177 18.1373 160.051 18.1377C159.765 18.1378 159.792 17.8514 159.811 17.367C160.6 15.8375 162.582 12.3127 163.141 11.9981C164.47 11.5879 166.005 11.0885 167.403 10.9092C167.881 10.8235 168.047 10.9854 168.258 11.1882C168.895 11.8021 165.713 12.1065 164.854 12.6325Z" fill="#2E2E2E"/>
<path fill-rule="evenodd" clip-rule="evenodd" d="M163.839 23.352C163.941 23.0166 164.234 22.6075 164.674 22.7497C165.351 23.0234 164.954 23.7559 164.888 24.3984C164.58 27.4113 164.76 30.4495 164.696 33.4751C164.677 33.8833 164.743 34.4989 164.148 34.5572C162.698 34.4029 163.37 25.3178 163.839 23.352Z" fill="#2E2E2E"/>
<path fill-rule="evenodd" clip-rule="evenodd" d="M172.026 12.2759C171.686 12.8983 169.218 17.0837 168.821 15.3482C169.591 13.9782 170.344 12.6866 171.2 11.3495C172.081 10.8858 174.494 10.4795 175.667 10.4795C175.918 10.5635 176.139 10.6649 176.278 10.8858C176.487 11.218 173.9 11.4195 172.938 11.7717C173.528 12.3588 175.595 13.7396 175.945 14.2354C175.983 14.4649 175.982 14.6272 175.917 14.788C175.753 15.1944 172.616 12.981 172.026 12.2759Z" fill="#2E2E2E"/>
<mask id="mask3_7_4422" style="mask-type:alpha" maskUnits="userSpaceOnUse" x="188" y="10" width="10" height="46">
<path fill-rule="evenodd" clip-rule="evenodd" d="M188.409 10H198V56H188.409V10Z" fill="white"/>
</mask>
<g mask="url(#mask3_7_4422)">
<path fill-rule="evenodd" clip-rule="evenodd" d="M189.64 13.1275C191.172 9.92687 197.643 7.73099 195.456 14.0289C194.14 17.8201 193.201 19.4593 191.345 23.404C193.533 23.1752 196.02 22.5576 197.113 24.4596C198.891 27.5545 197.878 49.1019 195.124 55.6255C194.709 56.608 193.537 55.4369 193.939 54.635C195.71 51.1088 196.497 33.8946 195.784 26.9413C195.629 23.6048 192.511 24.6412 190.46 25.0908C187.026 25.8434 194.413 16.4434 194.613 11.6307C194.704 9.439 190.266 13.3278 189.904 14.4202C189.416 15.8935 190.092 18.59 189.416 18.6101C188.013 18.6519 188.433 13.0506 188.598 11.8993C188.631 11.6745 188.992 11.3319 189.262 11.3643C189.85 11.4348 189.528 12.5267 189.64 13.1275Z" fill="#2E2E2E"/>
</g>
<path fill-rule="evenodd" clip-rule="evenodd" d="M189.261 36.3414C186.719 34.8248 183.993 33.1202 182.007 30.9693C181.526 31.6685 179.936 35.2439 178.588 35.4865C178.228 35.4424 178.369 35.0417 178.579 34.7322C180.351 32.1272 182.196 28.624 183.269 25.8681C179.786 26.6432 180.854 21.7886 181.876 23.362C181.91 23.8472 181.609 24.6328 182.173 24.8853C183.963 25.6874 184.896 21.0372 185.467 23.6358C184.74 25.6796 183.664 27.5513 182.794 29.5507C182.668 29.7856 182.673 29.9632 182.864 30.1795C184.652 32.1638 187.027 33.6485 189.416 34.9947" fill="#2E2E2E"/>
<path fill-rule="evenodd" clip-rule="evenodd" d="M185.595 18.765C185.673 19.3327 184.58 19.2243 184.424 18.5448C183.937 16.4294 183.895 14.3828 183.834 12.2205C183.815 11.5305 184.701 11.5252 184.747 11.8026C185.097 13.914 185.361 17.057 185.595 18.765Z" fill="#2E2E2E"/>
<path fill-rule="evenodd" clip-rule="evenodd" d="M190.816 34.1035C190.816 33.4423 191.239 32.5101 191.593 31.968C191.703 31.7999 192.14 31.2263 192.398 31.3904C192.558 32.1391 191.561 33.5301 190.816 34.1035ZM193.098 30.8444C192.939 30.6834 192.709 30.5947 192.45 30.5947C192.353 30.5947 192.251 30.607 192.149 30.6313C191.824 30.708 191.54 30.8509 191.368 31.0231C191.073 31.32 190.744 31.6788 190.553 32.0887C190.255 32.7278 190.01 33.3971 189.773 34.0445L189.604 34.5026C189.508 34.7711 189.451 34.9001 189.191 34.9001C189.175 34.9001 189.157 34.8996 189.139 34.8985L188.926 34.885L189.133 35.5378C189.095 35.564 189.058 35.5903 189.021 35.6166C188.883 35.7149 188.752 35.8075 188.613 35.8904C188.865 35.979 188.893 36.2258 188.777 36.6077C188.753 36.6744 188.733 36.7305 188.716 36.779C188.684 36.8733 188.662 36.9374 188.633 36.9987C187.735 38.8884 186.836 40.7783 185.931 42.6654C185.804 42.9318 185.654 43.1972 185.508 43.4537L185.431 43.5907C185.343 43.7482 185.323 43.8933 185.375 44.0106C185.405 44.0775 185.473 44.1675 185.629 44.2155C185.669 44.2278 185.714 44.2341 185.763 44.2341C185.926 44.2341 186.115 44.1655 186.214 44.0711C186.395 43.897 186.525 43.6849 186.653 43.4648C188.046 41.0704 189.136 38.9069 190.044 36.7806C190.081 36.6929 190.123 36.6066 190.172 36.5083L190.173 36.5057C190.229 36.5461 190.283 36.5858 190.337 36.6249C190.555 36.7841 190.762 36.9346 190.981 37.0672C191.05 37.1087 191.135 37.172 191.23 37.2426C191.545 37.4763 191.937 37.7671 192.311 37.7671C192.363 37.7669 192.414 37.7612 192.462 37.7499L192.52 37.7359L192.74 37.4121L192.646 37.3366C192.33 37.0845 191.923 36.785 191.522 36.4827C191.166 36.2157 190.792 35.9275 190.501 35.698L190.559 35.6451C190.66 35.5537 190.762 35.4621 190.867 35.3747C191.849 34.5601 192.586 33.5428 193.119 32.2647C193.205 32.0598 193.296 31.8163 193.323 31.5624C193.354 31.2773 193.274 31.0223 193.098 30.8444Z" fill="#2E2E2E"/>
</svg>
